<svg xmlns="http://www.w3.org/2000/svg" viewBox="0 0 1024 1024">
  <defs>
    <linearGradient id="bg" x1="120" y1="120" x2="904" y2="904" gradientUnits="userSpaceOnUse">
      <stop offset="0" stop-color="#35d07f"/>
      <stop offset="0.52" stop-color="#238636"/>
      <stop offset="1" stop-color="#1f6feb"/>
    </linearGradient>
    <filter id="shadow" x="-20%" y="-20%" width="140%" height="140%">
      <feDropShadow dx="0" dy="28" stdDeviation="34" flood-color="#000000" flood-opacity="0.28"/>
    </filter>
  </defs>
  <rect width="1024" height="1024" rx="224" fill="#0d1117"/>
  <circle cx="512" cy="512" r="356" fill="url(#bg)" filter="url(#shadow)"/>
  <circle cx="512" cy="512" r="248" fill="#0d1117"/>
  <path d="M512 192c176.7 0 320 143.3 320 320S688.7 832 512 832 192 688.7 192 512 335.3 192 512 192Zm0 96c-123.7 0-224 100.3-224 224s100.3 224 224 224 224-100.3 224-224S635.7 288 512 288Z" fill="#f0f6fc"/>
  <path d="M356 566h96l60 112 60-112h96L552 346h-80L356 566Z" fill="#35d07f"/>
  <path d="M368 346h288v80H368v-80Z" fill="#f0f6fc"/>
</svg>
